<mxfile host="Electron" modified="2024-04-22T10:27:52.024Z" agent="Mozilla/5.0 (X11; Linux x86_64) AppleWebKit/537.36 (KHTML, like Gecko) draw.io/24.2.5 Chrome/120.0.6099.109 Electron/28.1.0 Safari/537.36" etag="FoqltDg0kMWu_hFfc-T-" version="24.2.5" type="device">
  <diagram name="Page-1" id="97916047-d0de-89f5-080d-49f4d83e522f">
    <mxGraphModel dx="3827.5" dy="1201" grid="1" gridSize="10" guides="1" tooltips="1" connect="1" arrows="1" fold="1" page="1" pageScale="1.5" pageWidth="1169" pageHeight="827" background="none" math="0" shadow="0">
      <root>
        <mxCell id="0" />
        <mxCell id="1" parent="0" />
        <mxCell id="3" value="Geschäftsführung" style="rounded=1;fillColor=#10739E;strokeColor=none;shadow=1;gradientColor=none;fontStyle=1;fontColor=#FFFFFF;fontSize=14;" parent="1" vertex="1">
          <mxGeometry x="766.5" y="290" width="220" height="60" as="geometry" />
        </mxCell>
        <mxCell id="5" value="Software&#xa;120 Personen" style="rounded=1;fillColor=#10739E;strokeColor=none;shadow=1;gradientColor=none;fontStyle=1;fontColor=#FFFFFF;fontSize=14;" parent="1" vertex="1">
          <mxGeometry x="-420" y="500" width="200" height="60" as="geometry" />
        </mxCell>
        <mxCell id="6" value="Organisation&#xa;44 Personen" style="rounded=1;fillColor=#10739E;strokeColor=none;shadow=1;gradientColor=none;fontStyle=1;fontColor=#FFFFFF;fontSize=14;" parent="1" vertex="1">
          <mxGeometry x="776.5" y="500" width="200" height="60" as="geometry" />
        </mxCell>
        <mxCell id="7" value="Marketing / Vertrieb&#xa;40 Personen" style="rounded=1;fillColor=#10739E;strokeColor=none;shadow=1;gradientColor=none;fontStyle=1;fontColor=#FFFFFF;fontSize=14;" parent="1" vertex="1">
          <mxGeometry x="1500" y="500" width="200" height="60" as="geometry" />
        </mxCell>
        <mxCell id="13" value="FIBU&#xa;33 Personen" style="rounded=1;fillColor=#10739E;strokeColor=none;shadow=1;gradientColor=none;fontStyle=1;fontColor=#FFFFFF;fontSize=14;" parent="1" vertex="1">
          <mxGeometry x="-300" y="640" width="200" height="60" as="geometry" />
        </mxCell>
        <mxCell id="14" value="CMBS&#xa;33 Personen" style="rounded=1;fillColor=#10739E;strokeColor=none;shadow=1;gradientColor=none;fontStyle=1;fontColor=#FFFFFF;fontSize=14;" parent="1" vertex="1">
          <mxGeometry x="-610" y="640" width="200" height="60" as="geometry" />
        </mxCell>
        <mxCell id="15" value="PROBS&#xa;33 Personen" style="rounded=1;fillColor=#10739E;strokeColor=none;shadow=1;gradientColor=none;fontStyle=1;fontColor=#FFFFFF;fontSize=14;" parent="1" vertex="1">
          <mxGeometry x="-976.5" y="640" width="200" height="60" as="geometry" />
        </mxCell>
        <mxCell id="30" value="" style="edgeStyle=elbowEdgeStyle;elbow=vertical;strokeWidth=4;endArrow=block;endFill=1;fontStyle=1;strokeColor=#23445D;" parent="1" source="3" target="5" edge="1">
          <mxGeometry x="22" y="165.5" width="100" height="100" as="geometry">
            <mxPoint x="22" y="265.5" as="sourcePoint" />
            <mxPoint x="122" y="165.5" as="targetPoint" />
            <Array as="points">
              <mxPoint x="230" y="450" />
            </Array>
          </mxGeometry>
        </mxCell>
        <mxCell id="42" value="" style="edgeStyle=elbowEdgeStyle;elbow=vertical;strokeWidth=4;endArrow=block;endFill=1;fontStyle=1;strokeColor=#23445D;" parent="1" source="5" target="14" edge="1">
          <mxGeometry x="62" y="165.5" width="100" height="100" as="geometry">
            <mxPoint x="-658" y="275.5" as="sourcePoint" />
            <mxPoint x="-558" y="175.5" as="targetPoint" />
          </mxGeometry>
        </mxCell>
        <mxCell id="43" value="" style="edgeStyle=elbowEdgeStyle;elbow=vertical;strokeWidth=4;endArrow=block;endFill=1;fontStyle=1;strokeColor=#23445D;" parent="1" source="5" target="15" edge="1">
          <mxGeometry x="62" y="175.5" width="100" height="100" as="geometry">
            <mxPoint x="-658" y="285.5" as="sourcePoint" />
            <mxPoint x="-558" y="185.5" as="targetPoint" />
          </mxGeometry>
        </mxCell>
        <mxCell id="gRjdGNPeBcvUsNMo4B3k-55" value="" style="edgeStyle=elbowEdgeStyle;elbow=vertical;strokeWidth=4;endArrow=block;endFill=1;fontStyle=1;strokeColor=#23445D;exitX=0.5;exitY=1;exitDx=0;exitDy=0;entryX=0.5;entryY=0;entryDx=0;entryDy=0;" parent="1" source="3" target="7" edge="1">
          <mxGeometry x="22" y="165.5" width="100" height="100" as="geometry">
            <mxPoint x="770" y="400" as="sourcePoint" />
            <mxPoint x="1318" y="494.5" as="targetPoint" />
            <Array as="points">
              <mxPoint x="860" y="450" />
              <mxPoint x="940" y="420" />
              <mxPoint x="1318" y="434.5" />
              <mxPoint x="1128" y="434.5" />
            </Array>
          </mxGeometry>
        </mxCell>
        <mxCell id="gRjdGNPeBcvUsNMo4B3k-56" value="" style="edgeStyle=elbowEdgeStyle;elbow=vertical;strokeWidth=4;endArrow=block;endFill=1;fontStyle=1;strokeColor=#23445D;exitX=0.5;exitY=1;exitDx=0;exitDy=0;entryX=0.5;entryY=0;entryDx=0;entryDy=0;" parent="1" source="5" target="13" edge="1">
          <mxGeometry x="62" y="165.5" width="100" height="100" as="geometry">
            <mxPoint x="-78.5" y="525.5" as="sourcePoint" />
            <mxPoint x="-78.5" y="585.5" as="targetPoint" />
            <Array as="points">
              <mxPoint x="-280" y="600" />
            </Array>
          </mxGeometry>
        </mxCell>
        <mxCell id="9Wc_l4aSd2tQEgsTbdU2-46" value="Dokumentation&#xa;4 Personen" style="rounded=1;fillColor=#10739E;strokeColor=none;shadow=1;gradientColor=none;fontStyle=1;fontColor=#FFFFFF;fontSize=14;" parent="1" vertex="1">
          <mxGeometry x="-840" y="1050" width="200" height="60" as="geometry" />
        </mxCell>
        <mxCell id="LHZRictP8kXEc40hoXQ5-43" value="QS&#xa;21 Personen&#xa;" style="rounded=1;fillColor=#10739E;strokeColor=none;shadow=1;gradientColor=none;fontStyle=1;fontColor=#FFFFFF;fontSize=14;" parent="1" vertex="1">
          <mxGeometry x="60" y="640" width="200" height="60" as="geometry" />
        </mxCell>
        <mxCell id="LHZRictP8kXEc40hoXQ5-44" value="Testing&#xa;10 Personen" style="rounded=1;fillColor=#10739E;strokeColor=none;shadow=1;gradientColor=none;fontStyle=1;fontColor=#FFFFFF;fontSize=14;" parent="1" vertex="1">
          <mxGeometry x="190" y="750" width="200" height="60" as="geometry" />
        </mxCell>
        <mxCell id="LHZRictP8kXEc40hoXQ5-45" value="Guidelines&#xa;5 Personen" style="rounded=1;fillColor=#10739E;strokeColor=none;shadow=1;gradientColor=none;fontStyle=1;fontColor=#FFFFFF;fontSize=14;" parent="1" vertex="1">
          <mxGeometry x="190" y="850" width="200" height="60" as="geometry" />
        </mxCell>
        <mxCell id="LHZRictP8kXEc40hoXQ5-46" value="VuMa&#xa;3 Personen" style="rounded=1;fillColor=#10739E;strokeColor=none;shadow=1;gradientColor=none;fontStyle=1;fontColor=#FFFFFF;fontSize=14;" parent="1" vertex="1">
          <mxGeometry x="190" y="950" width="200" height="60" as="geometry" />
        </mxCell>
        <mxCell id="LHZRictP8kXEc40hoXQ5-47" value="Reporting&#xa;3 Personen" style="rounded=1;fillColor=#10739E;strokeColor=none;shadow=1;gradientColor=none;fontStyle=1;fontColor=#FFFFFF;fontSize=14;" parent="1" vertex="1">
          <mxGeometry x="190" y="1050" width="200" height="60" as="geometry" />
        </mxCell>
        <mxCell id="LHZRictP8kXEc40hoXQ5-48" value="" style="edgeStyle=elbowEdgeStyle;elbow=vertical;strokeWidth=4;endArrow=block;endFill=1;fontStyle=1;strokeColor=#23445D;exitX=0.5;exitY=1;exitDx=0;exitDy=0;entryX=0.5;entryY=0;entryDx=0;entryDy=0;" parent="1" source="5" target="LHZRictP8kXEc40hoXQ5-43" edge="1">
          <mxGeometry x="62" y="165.5" width="100" height="100" as="geometry">
            <mxPoint x="-60" y="540" as="sourcePoint" />
            <mxPoint x="-10" y="640" as="targetPoint" />
            <Array as="points">
              <mxPoint x="-20" y="600" />
            </Array>
          </mxGeometry>
        </mxCell>
        <mxCell id="LHZRictP8kXEc40hoXQ5-49" value="IT - Zentrale München&#xa;30 Personen" style="rounded=1;fillColor=#10739E;strokeColor=none;shadow=1;gradientColor=none;fontStyle=1;fontColor=#FFFFFF;fontSize=14;" parent="1" vertex="1">
          <mxGeometry x="420" y="630" width="200" height="60" as="geometry" />
        </mxCell>
        <mxCell id="LHZRictP8kXEc40hoXQ5-50" value="Interner Support&#xa;5 Personen" style="rounded=1;fillColor=#10739E;strokeColor=none;shadow=1;gradientColor=none;fontStyle=1;fontColor=#FFFFFF;fontSize=14;" parent="1" vertex="1">
          <mxGeometry x="560" y="740" width="200" height="60" as="geometry" />
        </mxCell>
        <mxCell id="LHZRictP8kXEc40hoXQ5-51" value="Infrastruktur&#xa;5 Personen&#xa;" style="rounded=1;fillColor=#10739E;strokeColor=none;shadow=1;gradientColor=none;fontStyle=1;fontColor=#FFFFFF;fontSize=14;" parent="1" vertex="1">
          <mxGeometry x="560" y="840" width="200" height="60" as="geometry" />
        </mxCell>
        <mxCell id="LHZRictP8kXEc40hoXQ5-52" value="Webseite&#xa;5 Personen&#xa;" style="rounded=1;fillColor=#10739E;strokeColor=none;shadow=1;gradientColor=none;fontStyle=1;fontColor=#FFFFFF;fontSize=14;" parent="1" vertex="1">
          <mxGeometry x="560" y="940" width="200" height="60" as="geometry" />
        </mxCell>
        <mxCell id="LHZRictP8kXEc40hoXQ5-53" value="Partnerschulungen&#xa;5 Personen&#xa;" style="rounded=1;fillColor=#10739E;strokeColor=none;shadow=1;gradientColor=none;fontStyle=1;fontColor=#FFFFFF;fontSize=14;" parent="1" vertex="1">
          <mxGeometry x="560" y="1040" width="200" height="60" as="geometry" />
        </mxCell>
        <mxCell id="LHZRictP8kXEc40hoXQ5-54" value="Testmöglichkeiten Software&#xa;5 Personen&#xa;" style="rounded=1;fillColor=#10739E;strokeColor=none;shadow=1;gradientColor=none;fontStyle=1;fontColor=#FFFFFF;fontSize=14;" parent="1" vertex="1">
          <mxGeometry x="560" y="1140" width="200" height="60" as="geometry" />
        </mxCell>
        <mxCell id="LHZRictP8kXEc40hoXQ5-55" value="München - Zentrale&#xa;20 Personen" style="rounded=1;fillColor=#10739E;strokeColor=none;shadow=1;gradientColor=none;fontStyle=1;fontColor=#FFFFFF;fontSize=14;" parent="1" vertex="1">
          <mxGeometry x="1640" y="630" width="200" height="60" as="geometry" />
        </mxCell>
        <mxCell id="LHZRictP8kXEc40hoXQ5-56" value="Wien&#xa;5 Personen" style="rounded=1;fillColor=#10739E;strokeColor=none;shadow=1;gradientColor=none;fontStyle=1;fontColor=#FFFFFF;fontSize=14;" parent="1" vertex="1">
          <mxGeometry x="1640" y="800" width="200" height="60" as="geometry" />
        </mxCell>
        <mxCell id="LHZRictP8kXEc40hoXQ5-57" value="Zürich&#xa;5 Personen" style="rounded=1;fillColor=#10739E;strokeColor=none;shadow=1;gradientColor=none;fontStyle=1;fontColor=#FFFFFF;fontSize=14;" parent="1" vertex="1">
          <mxGeometry x="1640" y="980" width="200" height="60" as="geometry" />
        </mxCell>
        <mxCell id="LHZRictP8kXEc40hoXQ5-58" value="Paris&#xa;5 Personen" style="rounded=1;fillColor=#10739E;strokeColor=none;shadow=1;gradientColor=none;fontStyle=1;fontColor=#FFFFFF;fontSize=14;" parent="1" vertex="1">
          <mxGeometry x="1640" y="1170" width="200" height="60" as="geometry" />
        </mxCell>
        <mxCell id="LHZRictP8kXEc40hoXQ5-59" value="Amsterdam&#xa;5 Personen" style="rounded=1;fillColor=#10739E;strokeColor=none;shadow=1;gradientColor=none;fontStyle=1;fontColor=#FFFFFF;fontSize=14;" parent="1" vertex="1">
          <mxGeometry x="1643.5" y="1370" width="200" height="60" as="geometry" />
        </mxCell>
        <mxCell id="LHZRictP8kXEc40hoXQ5-81" value="Legal Department&#xa;1 Personen" style="rounded=1;fillColor=#10739E;strokeColor=none;shadow=1;gradientColor=none;fontStyle=1;fontColor=#FFFFFF;fontSize=14;" parent="1" vertex="1">
          <mxGeometry x="1840" y="880" width="246.5" height="40" as="geometry" />
        </mxCell>
        <mxCell id="9Wc_l4aSd2tQEgsTbdU2-45" value="3rd Level Support&#xa;4 Personen" style="rounded=1;fillColor=#10739E;strokeColor=none;shadow=1;gradientColor=none;fontStyle=1;fontColor=#FFFFFF;fontSize=14;" parent="1" vertex="1">
          <mxGeometry x="-840" y="950" width="200" height="60" as="geometry" />
        </mxCell>
        <mxCell id="gRjdGNPeBcvUsNMo4B3k-71" value="Entwicklung&#xa;25 Personen" style="rounded=1;fillColor=#10739E;strokeColor=none;shadow=1;gradientColor=none;fontStyle=1;fontColor=#FFFFFF;fontSize=14;" parent="1" vertex="1">
          <mxGeometry x="-840" y="750" width="200" height="60" as="geometry" />
        </mxCell>
        <mxCell id="48EaxQg9wDrhMcDz6IMn-46" value="Core Team&#xa;10 Personen" style="rounded=1;fillColor=#10739E;strokeColor=none;shadow=1;gradientColor=none;fontStyle=1;fontColor=#FFFFFF;fontSize=14;" parent="1" vertex="1">
          <mxGeometry x="-676.5" y="825" width="116.5" height="40" as="geometry" />
        </mxCell>
        <mxCell id="48EaxQg9wDrhMcDz6IMn-47" value="Springer Team&#xa;15 Personen" style="rounded=1;fillColor=#10739E;strokeColor=none;shadow=1;gradientColor=none;fontStyle=1;fontColor=#FFFFFF;fontSize=14;" parent="1" vertex="1">
          <mxGeometry x="-676.5" y="880" width="116.5" height="40" as="geometry" />
        </mxCell>
        <mxCell id="48EaxQg9wDrhMcDz6IMn-48" value="" style="edgeStyle=elbowEdgeStyle;elbow=horizontal;strokeWidth=4;endArrow=block;endFill=1;fontStyle=1;strokeColor=#23445D;exitX=0.5;exitY=1;exitDx=0;exitDy=0;entryX=0;entryY=0.5;entryDx=0;entryDy=0;" parent="1" source="gRjdGNPeBcvUsNMo4B3k-71" target="48EaxQg9wDrhMcDz6IMn-46" edge="1">
          <mxGeometry x="62" y="165.5" width="100" height="100" as="geometry">
            <mxPoint x="-831.5" y="835" as="sourcePoint" />
            <mxPoint x="-721.5" y="885" as="targetPoint" />
            <Array as="points">
              <mxPoint x="-740" y="860" />
            </Array>
          </mxGeometry>
        </mxCell>
        <mxCell id="48EaxQg9wDrhMcDz6IMn-49" value="" style="edgeStyle=elbowEdgeStyle;elbow=horizontal;strokeWidth=4;endArrow=block;endFill=1;fontStyle=1;strokeColor=#23445D;exitX=0.5;exitY=1;exitDx=0;exitDy=0;entryX=0;entryY=0.5;entryDx=0;entryDy=0;" parent="1" source="gRjdGNPeBcvUsNMo4B3k-71" target="48EaxQg9wDrhMcDz6IMn-47" edge="1">
          <mxGeometry x="62" y="165.5" width="100" height="100" as="geometry">
            <mxPoint x="-810" y="830" as="sourcePoint" />
            <mxPoint x="-710" y="900" as="targetPoint" />
            <Array as="points">
              <mxPoint x="-740" y="880" />
            </Array>
          </mxGeometry>
        </mxCell>
        <mxCell id="48EaxQg9wDrhMcDz6IMn-50" value="" style="edgeStyle=elbowEdgeStyle;elbow=vertical;strokeWidth=4;endArrow=block;endFill=1;fontStyle=1;strokeColor=#23445D;exitX=0.5;exitY=1;exitDx=0;exitDy=0;entryX=0;entryY=0.5;entryDx=0;entryDy=0;" parent="1" source="15" target="9Wc_l4aSd2tQEgsTbdU2-45" edge="1">
          <mxGeometry x="62" y="165.5" width="100" height="100" as="geometry">
            <mxPoint x="-1060" y="810" as="sourcePoint" />
            <mxPoint x="-960" y="880" as="targetPoint" />
            <Array as="points">
              <mxPoint x="-860" y="980" />
            </Array>
          </mxGeometry>
        </mxCell>
        <mxCell id="48EaxQg9wDrhMcDz6IMn-51" value="" style="edgeStyle=elbowEdgeStyle;elbow=vertical;strokeWidth=4;endArrow=block;endFill=1;fontStyle=1;strokeColor=#23445D;exitX=0.5;exitY=1;exitDx=0;exitDy=0;entryX=0;entryY=0.5;entryDx=0;entryDy=0;" parent="1" source="15" target="9Wc_l4aSd2tQEgsTbdU2-46" edge="1">
          <mxGeometry x="62" y="165.5" width="100" height="100" as="geometry">
            <mxPoint x="-1100" y="940" as="sourcePoint" />
            <mxPoint x="-1000" y="1010" as="targetPoint" />
            <Array as="points">
              <mxPoint x="-860" y="1080" />
            </Array>
          </mxGeometry>
        </mxCell>
        <mxCell id="48EaxQg9wDrhMcDz6IMn-52" value="" style="edgeStyle=elbowEdgeStyle;elbow=vertical;strokeWidth=4;endArrow=block;endFill=1;fontStyle=1;strokeColor=#23445D;exitX=0.5;exitY=1;exitDx=0;exitDy=0;entryX=0;entryY=0.5;entryDx=0;entryDy=0;" parent="1" source="15" target="gRjdGNPeBcvUsNMo4B3k-71" edge="1">
          <mxGeometry x="62" y="165.5" width="100" height="100" as="geometry">
            <mxPoint x="-1076.5" y="1070" as="sourcePoint" />
            <mxPoint x="-976.5" y="1140" as="targetPoint" />
            <Array as="points">
              <mxPoint x="-890" y="780" />
            </Array>
          </mxGeometry>
        </mxCell>
        <mxCell id="48EaxQg9wDrhMcDz6IMn-53" value="Dokumentation&#xa;4 Personen" style="rounded=1;fillColor=#10739E;strokeColor=none;shadow=1;gradientColor=none;fontStyle=1;fontColor=#FFFFFF;fontSize=14;" parent="1" vertex="1">
          <mxGeometry x="-480" y="1050" width="200" height="60" as="geometry" />
        </mxCell>
        <mxCell id="48EaxQg9wDrhMcDz6IMn-54" value="3rd Level Support&#xa;4 Personen" style="rounded=1;fillColor=#10739E;strokeColor=none;shadow=1;gradientColor=none;fontStyle=1;fontColor=#FFFFFF;fontSize=14;" parent="1" vertex="1">
          <mxGeometry x="-480" y="950" width="200" height="60" as="geometry" />
        </mxCell>
        <mxCell id="48EaxQg9wDrhMcDz6IMn-55" value="Entwicklung&#xa;25 Personen " style="rounded=1;fillColor=#10739E;strokeColor=none;shadow=1;gradientColor=none;fontStyle=1;fontColor=#FFFFFF;fontSize=14;" parent="1" vertex="1">
          <mxGeometry x="-480" y="750" width="200" height="60" as="geometry" />
        </mxCell>
        <mxCell id="48EaxQg9wDrhMcDz6IMn-56" value="Core Team&#xa;10 Personen" style="rounded=1;fillColor=#10739E;strokeColor=none;shadow=1;gradientColor=none;fontStyle=1;fontColor=#FFFFFF;fontSize=14;" parent="1" vertex="1">
          <mxGeometry x="-336.5" y="825" width="116.5" height="40" as="geometry" />
        </mxCell>
        <mxCell id="48EaxQg9wDrhMcDz6IMn-57" value="Springer Team&#xa;15 Personen" style="rounded=1;fillColor=#10739E;strokeColor=none;shadow=1;gradientColor=none;fontStyle=1;fontColor=#FFFFFF;fontSize=14;" parent="1" vertex="1">
          <mxGeometry x="-336.5" y="880" width="116.5" height="40" as="geometry" />
        </mxCell>
        <mxCell id="48EaxQg9wDrhMcDz6IMn-58" value="" style="edgeStyle=elbowEdgeStyle;elbow=horizontal;strokeWidth=4;endArrow=block;endFill=1;fontStyle=1;strokeColor=#23445D;exitX=0.5;exitY=1;exitDx=0;exitDy=0;entryX=0;entryY=0.5;entryDx=0;entryDy=0;" parent="1" source="48EaxQg9wDrhMcDz6IMn-55" target="48EaxQg9wDrhMcDz6IMn-56" edge="1">
          <mxGeometry x="62" y="165.5" width="100" height="100" as="geometry">
            <mxPoint x="-481.5" y="835" as="sourcePoint" />
            <mxPoint x="-326.5" y="835" as="targetPoint" />
            <Array as="points">
              <mxPoint x="-380" y="835" />
            </Array>
          </mxGeometry>
        </mxCell>
        <mxCell id="48EaxQg9wDrhMcDz6IMn-59" value="" style="edgeStyle=elbowEdgeStyle;elbow=horizontal;strokeWidth=4;endArrow=block;endFill=1;fontStyle=1;strokeColor=#23445D;exitX=0.5;exitY=1;exitDx=0;exitDy=0;entryX=0;entryY=0.5;entryDx=0;entryDy=0;" parent="1" source="48EaxQg9wDrhMcDz6IMn-55" target="48EaxQg9wDrhMcDz6IMn-57" edge="1">
          <mxGeometry x="62" y="165.5" width="100" height="100" as="geometry">
            <mxPoint x="-460" y="830" as="sourcePoint" />
            <mxPoint x="-326.5" y="880" as="targetPoint" />
            <Array as="points">
              <mxPoint x="-380" y="910" />
            </Array>
          </mxGeometry>
        </mxCell>
        <mxCell id="48EaxQg9wDrhMcDz6IMn-60" value="Dokumentation&#xa;4 Personen" style="rounded=1;fillColor=#10739E;strokeColor=none;shadow=1;gradientColor=none;fontStyle=1;fontColor=#FFFFFF;fontSize=14;" parent="1" vertex="1">
          <mxGeometry x="-150" y="1050" width="200" height="60" as="geometry" />
        </mxCell>
        <mxCell id="48EaxQg9wDrhMcDz6IMn-61" value="3rd Level Support&#xa;4 Personen" style="rounded=1;fillColor=#10739E;strokeColor=none;shadow=1;gradientColor=none;fontStyle=1;fontColor=#FFFFFF;fontSize=14;" parent="1" vertex="1">
          <mxGeometry x="-150" y="950" width="200" height="60" as="geometry" />
        </mxCell>
        <mxCell id="48EaxQg9wDrhMcDz6IMn-62" value="Entwicklung&#xa;25 Personen " style="rounded=1;fillColor=#10739E;strokeColor=none;shadow=1;gradientColor=none;fontStyle=1;fontColor=#FFFFFF;fontSize=14;" parent="1" vertex="1">
          <mxGeometry x="-160" y="750" width="200" height="60" as="geometry" />
        </mxCell>
        <mxCell id="48EaxQg9wDrhMcDz6IMn-63" value="Core Team&#xa;10 Personen" style="rounded=1;fillColor=#10739E;strokeColor=none;shadow=1;gradientColor=none;fontStyle=1;fontColor=#FFFFFF;fontSize=14;" parent="1" vertex="1">
          <mxGeometry x="-10" y="825" width="116.5" height="40" as="geometry" />
        </mxCell>
        <mxCell id="48EaxQg9wDrhMcDz6IMn-64" value="Springer Team&#xa;15 Personen" style="rounded=1;fillColor=#10739E;strokeColor=none;shadow=1;gradientColor=none;fontStyle=1;fontColor=#FFFFFF;fontSize=14;" parent="1" vertex="1">
          <mxGeometry x="-10" y="880" width="116.5" height="40" as="geometry" />
        </mxCell>
        <mxCell id="48EaxQg9wDrhMcDz6IMn-65" value="" style="edgeStyle=elbowEdgeStyle;elbow=vertical;strokeWidth=4;endArrow=block;endFill=1;fontStyle=1;strokeColor=#23445D;exitX=0.5;exitY=1;exitDx=0;exitDy=0;entryX=0;entryY=0.5;entryDx=0;entryDy=0;" parent="1" source="48EaxQg9wDrhMcDz6IMn-62" target="48EaxQg9wDrhMcDz6IMn-63" edge="1">
          <mxGeometry x="62" y="165.5" width="100" height="100" as="geometry">
            <mxPoint x="-151.5" y="825" as="sourcePoint" />
            <mxPoint x="-41.5" y="875" as="targetPoint" />
            <Array as="points">
              <mxPoint x="-40" y="845" />
            </Array>
          </mxGeometry>
        </mxCell>
        <mxCell id="48EaxQg9wDrhMcDz6IMn-66" value="" style="edgeStyle=elbowEdgeStyle;elbow=horizontal;strokeWidth=4;endArrow=block;endFill=1;fontStyle=1;strokeColor=#23445D;exitX=0.5;exitY=1;exitDx=0;exitDy=0;entryX=0;entryY=0.5;entryDx=0;entryDy=0;" parent="1" source="48EaxQg9wDrhMcDz6IMn-62" target="48EaxQg9wDrhMcDz6IMn-64" edge="1">
          <mxGeometry x="62" y="165.5" width="100" height="100" as="geometry">
            <mxPoint x="-130" y="820" as="sourcePoint" />
            <mxPoint x="-30" y="890" as="targetPoint" />
            <Array as="points">
              <mxPoint x="-60" y="880" />
            </Array>
          </mxGeometry>
        </mxCell>
        <mxCell id="48EaxQg9wDrhMcDz6IMn-68" value="" style="edgeStyle=elbowEdgeStyle;elbow=vertical;strokeWidth=4;endArrow=block;endFill=1;fontStyle=1;strokeColor=#23445D;exitX=0.5;exitY=1;exitDx=0;exitDy=0;entryX=0;entryY=0.5;entryDx=0;entryDy=0;" parent="1" source="14" target="48EaxQg9wDrhMcDz6IMn-53" edge="1">
          <mxGeometry x="62" y="165.5" width="100" height="100" as="geometry">
            <mxPoint x="-530" y="700" as="sourcePoint" />
            <mxPoint x="-510" y="1050" as="targetPoint" />
            <Array as="points">
              <mxPoint x="-500" y="1080" />
            </Array>
          </mxGeometry>
        </mxCell>
        <mxCell id="48EaxQg9wDrhMcDz6IMn-70" value="" style="edgeStyle=elbowEdgeStyle;elbow=vertical;strokeWidth=4;endArrow=block;endFill=1;fontStyle=1;strokeColor=#23445D;exitX=0.5;exitY=1;exitDx=0;exitDy=0;entryX=0;entryY=0.5;entryDx=0;entryDy=0;" parent="1" source="14" target="48EaxQg9wDrhMcDz6IMn-54" edge="1">
          <mxGeometry x="62" y="165.5" width="100" height="100" as="geometry">
            <mxPoint x="-500" y="710" as="sourcePoint" />
            <mxPoint x="-470" y="1060" as="targetPoint" />
            <Array as="points">
              <mxPoint x="-500" y="980" />
            </Array>
          </mxGeometry>
        </mxCell>
        <mxCell id="48EaxQg9wDrhMcDz6IMn-71" value="" style="edgeStyle=elbowEdgeStyle;elbow=vertical;strokeWidth=4;endArrow=block;endFill=1;fontStyle=1;strokeColor=#23445D;exitX=0.5;exitY=1;exitDx=0;exitDy=0;entryX=0;entryY=0.5;entryDx=0;entryDy=0;" parent="1" source="14" target="48EaxQg9wDrhMcDz6IMn-55" edge="1">
          <mxGeometry x="62" y="165.5" width="100" height="100" as="geometry">
            <mxPoint x="-500" y="710" as="sourcePoint" />
            <mxPoint x="-470" y="960" as="targetPoint" />
            <Array as="points">
              <mxPoint x="-540" y="780" />
            </Array>
          </mxGeometry>
        </mxCell>
        <mxCell id="48EaxQg9wDrhMcDz6IMn-74" value="" style="edgeStyle=elbowEdgeStyle;elbow=vertical;strokeWidth=4;endArrow=block;endFill=1;fontStyle=1;strokeColor=#23445D;exitX=0.5;exitY=1;exitDx=0;exitDy=0;entryX=0;entryY=0.5;entryDx=0;entryDy=0;" parent="1" source="13" target="48EaxQg9wDrhMcDz6IMn-60" edge="1">
          <mxGeometry x="62" y="165.5" width="100" height="100" as="geometry">
            <mxPoint x="-233.5" y="740" as="sourcePoint" />
            <mxPoint x="-193.5" y="1080" as="targetPoint" />
            <Array as="points">
              <mxPoint x="-180" y="1080" />
            </Array>
          </mxGeometry>
        </mxCell>
        <mxCell id="48EaxQg9wDrhMcDz6IMn-75" value="" style="edgeStyle=elbowEdgeStyle;elbow=vertical;strokeWidth=4;endArrow=block;endFill=1;fontStyle=1;strokeColor=#23445D;entryX=0;entryY=0.5;entryDx=0;entryDy=0;exitX=0.5;exitY=1;exitDx=0;exitDy=0;" parent="1" source="13" target="48EaxQg9wDrhMcDz6IMn-61" edge="1">
          <mxGeometry x="62" y="165.5" width="100" height="100" as="geometry">
            <mxPoint x="-215" y="710" as="sourcePoint" />
            <mxPoint x="-185" y="960" as="targetPoint" />
            <Array as="points">
              <mxPoint x="-180" y="980" />
            </Array>
          </mxGeometry>
        </mxCell>
        <mxCell id="48EaxQg9wDrhMcDz6IMn-76" value="" style="edgeStyle=elbowEdgeStyle;elbow=vertical;strokeWidth=4;endArrow=block;endFill=1;fontStyle=1;strokeColor=#23445D;exitX=0.5;exitY=1;exitDx=0;exitDy=0;entryX=0;entryY=0.5;entryDx=0;entryDy=0;" parent="1" source="13" target="48EaxQg9wDrhMcDz6IMn-62" edge="1">
          <mxGeometry x="62" y="165.5" width="100" height="100" as="geometry">
            <mxPoint x="-215" y="710" as="sourcePoint" />
            <mxPoint x="-185" y="790" as="targetPoint" />
            <Array as="points">
              <mxPoint x="-200" y="780" />
            </Array>
          </mxGeometry>
        </mxCell>
        <mxCell id="48EaxQg9wDrhMcDz6IMn-77" value="" style="edgeStyle=elbowEdgeStyle;elbow=vertical;strokeWidth=4;endArrow=block;endFill=1;fontStyle=1;strokeColor=#23445D;exitX=0.5;exitY=1;exitDx=0;exitDy=0;entryX=0;entryY=0.5;entryDx=0;entryDy=0;" parent="1" source="LHZRictP8kXEc40hoXQ5-43" target="LHZRictP8kXEc40hoXQ5-47" edge="1">
          <mxGeometry x="62" y="165.5" width="100" height="100" as="geometry">
            <mxPoint x="140" y="730" as="sourcePoint" />
            <mxPoint x="180" y="1070" as="targetPoint" />
            <Array as="points">
              <mxPoint x="150" y="1080" />
            </Array>
          </mxGeometry>
        </mxCell>
        <mxCell id="48EaxQg9wDrhMcDz6IMn-78" value="" style="edgeStyle=elbowEdgeStyle;elbow=vertical;strokeWidth=4;endArrow=block;endFill=1;fontStyle=1;strokeColor=#23445D;entryX=0;entryY=0.5;entryDx=0;entryDy=0;exitX=0.5;exitY=1;exitDx=0;exitDy=0;" parent="1" source="LHZRictP8kXEc40hoXQ5-43" target="LHZRictP8kXEc40hoXQ5-46" edge="1">
          <mxGeometry x="62" y="165.5" width="100" height="100" as="geometry">
            <mxPoint x="150" y="750" as="sourcePoint" />
            <mxPoint x="180" y="970" as="targetPoint" />
            <Array as="points">
              <mxPoint x="150" y="980" />
            </Array>
          </mxGeometry>
        </mxCell>
        <mxCell id="48EaxQg9wDrhMcDz6IMn-79" value="" style="edgeStyle=elbowEdgeStyle;elbow=vertical;strokeWidth=4;endArrow=block;endFill=1;fontStyle=1;strokeColor=#23445D;exitX=0.5;exitY=1;exitDx=0;exitDy=0;entryX=0;entryY=0.5;entryDx=0;entryDy=0;" parent="1" source="LHZRictP8kXEc40hoXQ5-43" target="LHZRictP8kXEc40hoXQ5-44" edge="1">
          <mxGeometry x="62" y="165.5" width="100" height="100" as="geometry">
            <mxPoint x="140" y="730" as="sourcePoint" />
            <mxPoint x="180" y="800" as="targetPoint" />
            <Array as="points">
              <mxPoint x="150" y="780" />
            </Array>
          </mxGeometry>
        </mxCell>
        <mxCell id="48EaxQg9wDrhMcDz6IMn-80" value="" style="edgeStyle=elbowEdgeStyle;elbow=vertical;strokeWidth=4;endArrow=block;endFill=1;fontStyle=1;strokeColor=#23445D;entryX=0;entryY=0.5;entryDx=0;entryDy=0;exitX=0.5;exitY=1;exitDx=0;exitDy=0;" parent="1" source="LHZRictP8kXEc40hoXQ5-43" target="LHZRictP8kXEc40hoXQ5-45" edge="1">
          <mxGeometry x="62" y="165.5" width="100" height="100" as="geometry">
            <mxPoint x="120" y="620" as="sourcePoint" />
            <mxPoint x="150" y="900" as="targetPoint" />
            <Array as="points">
              <mxPoint x="150" y="880" />
            </Array>
          </mxGeometry>
        </mxCell>
        <mxCell id="48EaxQg9wDrhMcDz6IMn-81" value="" style="edgeStyle=elbowEdgeStyle;elbow=vertical;strokeWidth=4;endArrow=block;endFill=1;fontStyle=1;strokeColor=#23445D;exitX=0.5;exitY=1;exitDx=0;exitDy=0;entryX=0;entryY=0.5;entryDx=0;entryDy=0;" parent="1" source="LHZRictP8kXEc40hoXQ5-49" target="LHZRictP8kXEc40hoXQ5-53" edge="1">
          <mxGeometry x="62" y="165.5" width="100" height="100" as="geometry">
            <mxPoint x="460" y="740" as="sourcePoint" />
            <mxPoint x="490" y="1120" as="targetPoint" />
            <Array as="points">
              <mxPoint x="480" y="1070" />
            </Array>
          </mxGeometry>
        </mxCell>
        <mxCell id="48EaxQg9wDrhMcDz6IMn-82" value="" style="edgeStyle=elbowEdgeStyle;elbow=vertical;strokeWidth=4;endArrow=block;endFill=1;fontStyle=1;strokeColor=#23445D;entryX=0;entryY=0.5;entryDx=0;entryDy=0;exitX=0.5;exitY=1;exitDx=0;exitDy=0;" parent="1" source="LHZRictP8kXEc40hoXQ5-49" target="LHZRictP8kXEc40hoXQ5-52" edge="1">
          <mxGeometry x="62" y="165.5" width="100" height="100" as="geometry">
            <mxPoint x="460" y="740" as="sourcePoint" />
            <mxPoint x="490" y="1020" as="targetPoint" />
            <Array as="points">
              <mxPoint x="480" y="970" />
            </Array>
          </mxGeometry>
        </mxCell>
        <mxCell id="48EaxQg9wDrhMcDz6IMn-83" value="" style="edgeStyle=elbowEdgeStyle;elbow=vertical;strokeWidth=4;endArrow=block;endFill=1;fontStyle=1;strokeColor=#23445D;entryX=0;entryY=0.5;entryDx=0;entryDy=0;exitX=0.5;exitY=1;exitDx=0;exitDy=0;" parent="1" source="LHZRictP8kXEc40hoXQ5-49" target="LHZRictP8kXEc40hoXQ5-50" edge="1">
          <mxGeometry x="62" y="165.5" width="100" height="100" as="geometry">
            <mxPoint x="490" y="690" as="sourcePoint" />
            <mxPoint x="490" y="820" as="targetPoint" />
            <Array as="points">
              <mxPoint x="470" y="770" />
            </Array>
          </mxGeometry>
        </mxCell>
        <mxCell id="48EaxQg9wDrhMcDz6IMn-84" value="" style="edgeStyle=elbowEdgeStyle;elbow=vertical;strokeWidth=4;endArrow=block;endFill=1;fontStyle=1;strokeColor=#23445D;entryX=0;entryY=0.5;entryDx=0;entryDy=0;exitX=0.5;exitY=1;exitDx=0;exitDy=0;" parent="1" source="LHZRictP8kXEc40hoXQ5-49" target="LHZRictP8kXEc40hoXQ5-51" edge="1">
          <mxGeometry x="62" y="165.5" width="100" height="100" as="geometry">
            <mxPoint x="460" y="740" as="sourcePoint" />
            <mxPoint x="490" y="920" as="targetPoint" />
            <Array as="points">
              <mxPoint x="470" y="870" />
            </Array>
          </mxGeometry>
        </mxCell>
        <mxCell id="48EaxQg9wDrhMcDz6IMn-85" value="" style="edgeStyle=elbowEdgeStyle;elbow=vertical;strokeWidth=4;endArrow=block;endFill=1;fontStyle=1;strokeColor=#23445D;exitX=0.5;exitY=1;exitDx=0;exitDy=0;entryX=0;entryY=0.5;entryDx=0;entryDy=0;" parent="1" source="LHZRictP8kXEc40hoXQ5-49" target="LHZRictP8kXEc40hoXQ5-54" edge="1">
          <mxGeometry x="62" y="165.5" width="100" height="100" as="geometry">
            <mxPoint x="420" y="960" as="sourcePoint" />
            <mxPoint x="450" y="1340" as="targetPoint" />
            <Array as="points">
              <mxPoint x="500" y="1170" />
            </Array>
          </mxGeometry>
        </mxCell>
        <mxCell id="48EaxQg9wDrhMcDz6IMn-86" value="" style="edgeStyle=elbowEdgeStyle;elbow=vertical;strokeWidth=4;endArrow=block;endFill=1;fontStyle=1;strokeColor=#23445D;entryX=0.5;entryY=0;entryDx=0;entryDy=0;exitX=0.5;exitY=1;exitDx=0;exitDy=0;" parent="1" source="6" target="LHZRictP8kXEc40hoXQ5-49" edge="1">
          <mxGeometry x="62" y="165.5" width="100" height="100" as="geometry">
            <mxPoint x="662" y="570" as="sourcePoint" />
            <mxPoint x="702" y="650" as="targetPoint" />
            <Array as="points">
              <mxPoint x="800" y="590" />
            </Array>
          </mxGeometry>
        </mxCell>
        <mxCell id="48EaxQg9wDrhMcDz6IMn-105" value="Marketing / Schulungen&#xa;4 Personen" style="rounded=1;fillColor=#10739E;strokeColor=none;shadow=1;gradientColor=none;fontStyle=1;fontColor=#FFFFFF;fontSize=14;" parent="1" vertex="1">
          <mxGeometry x="1840" y="930" width="246.5" height="40" as="geometry" />
        </mxCell>
        <mxCell id="48EaxQg9wDrhMcDz6IMn-109" value="" style="edgeStyle=elbowEdgeStyle;elbow=vertical;strokeWidth=4;endArrow=block;endFill=1;fontStyle=1;strokeColor=#23445D;entryX=0;entryY=0.5;entryDx=0;entryDy=0;exitX=0.5;exitY=1;exitDx=0;exitDy=0;" parent="1" source="LHZRictP8kXEc40hoXQ5-59" target="48EaxQg9wDrhMcDz6IMn-136" edge="1">
          <mxGeometry x="62" y="165.5" width="100" height="100" as="geometry">
            <mxPoint x="1703.5" y="1520" as="sourcePoint" />
            <mxPoint x="1843.5" y="1460" as="targetPoint" />
            <Array as="points">
              <mxPoint x="1730" y="1470" />
            </Array>
          </mxGeometry>
        </mxCell>
        <mxCell id="48EaxQg9wDrhMcDz6IMn-110" value="" style="edgeStyle=elbowEdgeStyle;elbow=vertical;strokeWidth=4;endArrow=block;endFill=1;fontStyle=1;strokeColor=#23445D;entryX=0;entryY=0.5;entryDx=0;entryDy=0;exitX=0.5;exitY=1;exitDx=0;exitDy=0;" parent="1" source="LHZRictP8kXEc40hoXQ5-59" target="48EaxQg9wDrhMcDz6IMn-137" edge="1">
          <mxGeometry x="62" y="165.5" width="100" height="100" as="geometry">
            <mxPoint x="1543.5" y="1560" as="sourcePoint" />
            <mxPoint x="1843.5" y="1520" as="targetPoint" />
            <Array as="points">
              <mxPoint x="1733.5" y="1520" />
            </Array>
          </mxGeometry>
        </mxCell>
        <mxCell id="48EaxQg9wDrhMcDz6IMn-130" value="Legal Department&#xa;2 Personen" style="rounded=1;fillColor=#10739E;strokeColor=none;shadow=1;gradientColor=none;fontStyle=1;fontColor=#FFFFFF;fontSize=14;" parent="1" vertex="1">
          <mxGeometry x="1840" y="700" width="246.5" height="40" as="geometry" />
        </mxCell>
        <mxCell id="48EaxQg9wDrhMcDz6IMn-131" value="Schulungsentwicklung/ Marketing&#xa;18 Personen" style="rounded=1;fillColor=#10739E;strokeColor=none;shadow=1;gradientColor=none;fontStyle=1;fontColor=#FFFFFF;fontSize=14;" parent="1" vertex="1">
          <mxGeometry x="1840" y="750" width="246.5" height="40" as="geometry" />
        </mxCell>
        <mxCell id="48EaxQg9wDrhMcDz6IMn-132" value="Legal Department&#xa;1 Personen" style="rounded=1;fillColor=#10739E;strokeColor=none;shadow=1;gradientColor=none;fontStyle=1;fontColor=#FFFFFF;fontSize=14;" parent="1" vertex="1">
          <mxGeometry x="1843.5" y="1060" width="246.5" height="40" as="geometry" />
        </mxCell>
        <mxCell id="48EaxQg9wDrhMcDz6IMn-133" value="Marketing / Schulungen&#xa;4 Personen" style="rounded=1;fillColor=#10739E;strokeColor=none;shadow=1;gradientColor=none;fontStyle=1;fontColor=#FFFFFF;fontSize=14;" parent="1" vertex="1">
          <mxGeometry x="1843.5" y="1110" width="246.5" height="40" as="geometry" />
        </mxCell>
        <mxCell id="48EaxQg9wDrhMcDz6IMn-134" value="Legal Department&#xa;1 Personen" style="rounded=1;fillColor=#10739E;strokeColor=none;shadow=1;gradientColor=none;fontStyle=1;fontColor=#FFFFFF;fontSize=14;" parent="1" vertex="1">
          <mxGeometry x="1843.5" y="1260" width="246.5" height="40" as="geometry" />
        </mxCell>
        <mxCell id="48EaxQg9wDrhMcDz6IMn-135" value="Marketing / Schulungen&#xa;4 Personen" style="rounded=1;fillColor=#10739E;strokeColor=none;shadow=1;gradientColor=none;fontStyle=1;fontColor=#FFFFFF;fontSize=14;" parent="1" vertex="1">
          <mxGeometry x="1843.5" y="1310" width="246.5" height="40" as="geometry" />
        </mxCell>
        <mxCell id="48EaxQg9wDrhMcDz6IMn-136" value="Legal Department&#xa;1 Personen" style="rounded=1;fillColor=#10739E;strokeColor=none;shadow=1;gradientColor=none;fontStyle=1;fontColor=#FFFFFF;fontSize=14;" parent="1" vertex="1">
          <mxGeometry x="1843.5" y="1450" width="246.5" height="40" as="geometry" />
        </mxCell>
        <mxCell id="48EaxQg9wDrhMcDz6IMn-137" value="Marketing / Schulungen&#xa;4 Personen" style="rounded=1;fillColor=#10739E;strokeColor=none;shadow=1;gradientColor=none;fontStyle=1;fontColor=#FFFFFF;fontSize=14;" parent="1" vertex="1">
          <mxGeometry x="1843.5" y="1500" width="246.5" height="40" as="geometry" />
        </mxCell>
        <mxCell id="48EaxQg9wDrhMcDz6IMn-139" value="Finanzen&#xa;7 Personen" style="rounded=1;fillColor=#10739E;strokeColor=none;shadow=1;gradientColor=none;fontStyle=1;fontColor=#FFFFFF;fontSize=14;" parent="1" vertex="1">
          <mxGeometry x="1130" y="630" width="200" height="60" as="geometry" />
        </mxCell>
        <mxCell id="48EaxQg9wDrhMcDz6IMn-140" value="Head Hunting&#xa;3 Personen" style="rounded=1;fillColor=#10739E;strokeColor=none;shadow=1;gradientColor=none;fontStyle=1;fontColor=#FFFFFF;fontSize=14;" parent="1" vertex="1">
          <mxGeometry x="910" y="740" width="200" height="60" as="geometry" />
        </mxCell>
        <mxCell id="48EaxQg9wDrhMcDz6IMn-141" value="Allgemeines&#xa;4 Personen" style="rounded=1;fillColor=#10739E;strokeColor=none;shadow=1;gradientColor=none;fontStyle=1;fontColor=#FFFFFF;fontSize=14;" parent="1" vertex="1">
          <mxGeometry x="910" y="840" width="200" height="60" as="geometry" />
        </mxCell>
        <mxCell id="48EaxQg9wDrhMcDz6IMn-142" value="Buchhaltung&#xa;4 Personen" style="rounded=1;fillColor=#10739E;strokeColor=none;shadow=1;gradientColor=none;fontStyle=1;fontColor=#FFFFFF;fontSize=14;" parent="1" vertex="1">
          <mxGeometry x="1260" y="740" width="200" height="60" as="geometry" />
        </mxCell>
        <mxCell id="48EaxQg9wDrhMcDz6IMn-143" value="Controlling&#xa;3 Personen" style="rounded=1;fillColor=#10739E;strokeColor=none;shadow=1;gradientColor=none;fontStyle=1;fontColor=#FFFFFF;fontSize=14;" parent="1" vertex="1">
          <mxGeometry x="1260" y="840" width="200" height="60" as="geometry" />
        </mxCell>
        <mxCell id="48EaxQg9wDrhMcDz6IMn-144" value="" style="edgeStyle=elbowEdgeStyle;elbow=vertical;strokeWidth=4;endArrow=block;endFill=1;fontStyle=1;strokeColor=#23445D;entryX=0.5;entryY=0;entryDx=0;entryDy=0;exitX=0.5;exitY=1;exitDx=0;exitDy=0;" parent="1" source="6" target="48EaxQg9wDrhMcDz6IMn-138" edge="1">
          <mxGeometry x="62" y="165.5" width="100" height="100" as="geometry">
            <mxPoint x="800" y="570" as="sourcePoint" />
            <mxPoint x="530" y="640" as="targetPoint" />
            <Array as="points" />
          </mxGeometry>
        </mxCell>
        <mxCell id="48EaxQg9wDrhMcDz6IMn-145" value="" style="edgeStyle=elbowEdgeStyle;elbow=vertical;strokeWidth=4;endArrow=block;endFill=1;fontStyle=1;strokeColor=#23445D;entryX=0.5;entryY=0;entryDx=0;entryDy=0;exitX=0.5;exitY=1;exitDx=0;exitDy=0;" parent="1" source="6" target="48EaxQg9wDrhMcDz6IMn-139" edge="1">
          <mxGeometry x="62" y="165.5" width="100" height="100" as="geometry">
            <mxPoint x="887" y="570" as="sourcePoint" />
            <mxPoint x="887" y="640" as="targetPoint" />
            <Array as="points">
              <mxPoint x="1050" y="590" />
            </Array>
          </mxGeometry>
        </mxCell>
        <mxCell id="48EaxQg9wDrhMcDz6IMn-146" value="" style="edgeStyle=elbowEdgeStyle;elbow=vertical;strokeWidth=4;endArrow=block;endFill=1;fontStyle=1;strokeColor=#23445D;entryX=0.5;entryY=0;entryDx=0;entryDy=0;exitX=0.5;exitY=1;exitDx=0;exitDy=0;" parent="1" source="3" target="6" edge="1">
          <mxGeometry x="62" y="165.5" width="100" height="100" as="geometry">
            <mxPoint x="1010" y="320" as="sourcePoint" />
            <mxPoint x="1010" y="390" as="targetPoint" />
            <Array as="points" />
          </mxGeometry>
        </mxCell>
        <mxCell id="48EaxQg9wDrhMcDz6IMn-147" value="" style="edgeStyle=elbowEdgeStyle;elbow=vertical;strokeWidth=4;endArrow=block;endFill=1;fontStyle=1;strokeColor=#23445D;entryX=0;entryY=0.5;entryDx=0;entryDy=0;exitX=0.5;exitY=1;exitDx=0;exitDy=0;" parent="1" source="48EaxQg9wDrhMcDz6IMn-138" target="48EaxQg9wDrhMcDz6IMn-140" edge="1">
          <mxGeometry x="62" y="165.5" width="100" height="100" as="geometry">
            <mxPoint x="860" y="720" as="sourcePoint" />
            <mxPoint x="860" y="790" as="targetPoint" />
            <Array as="points">
              <mxPoint x="880" y="770" />
            </Array>
          </mxGeometry>
        </mxCell>
        <mxCell id="48EaxQg9wDrhMcDz6IMn-148" value="" style="edgeStyle=elbowEdgeStyle;elbow=vertical;strokeWidth=4;endArrow=block;endFill=1;fontStyle=1;strokeColor=#23445D;entryX=0;entryY=0.5;entryDx=0;entryDy=0;exitX=0.5;exitY=1;exitDx=0;exitDy=0;" parent="1" source="48EaxQg9wDrhMcDz6IMn-138" target="48EaxQg9wDrhMcDz6IMn-141" edge="1">
          <mxGeometry x="62" y="165.5" width="100" height="100" as="geometry">
            <mxPoint x="860" y="840" as="sourcePoint" />
            <mxPoint x="860" y="910" as="targetPoint" />
            <Array as="points">
              <mxPoint x="880" y="870" />
            </Array>
          </mxGeometry>
        </mxCell>
        <mxCell id="48EaxQg9wDrhMcDz6IMn-138" value="Personalwesen&#xa;7 Personen" style="rounded=1;fillColor=#10739E;strokeColor=none;shadow=1;gradientColor=none;fontStyle=1;fontColor=#FFFFFF;fontSize=14;" parent="1" vertex="1">
          <mxGeometry x="776.5" y="630" width="200" height="60" as="geometry" />
        </mxCell>
        <mxCell id="48EaxQg9wDrhMcDz6IMn-153" value="" style="edgeStyle=elbowEdgeStyle;elbow=vertical;strokeWidth=4;endArrow=block;endFill=1;fontStyle=1;strokeColor=#23445D;entryX=0;entryY=0.5;entryDx=0;entryDy=0;exitX=0.5;exitY=1;exitDx=0;exitDy=0;" parent="1" source="48EaxQg9wDrhMcDz6IMn-139" target="48EaxQg9wDrhMcDz6IMn-142" edge="1">
          <mxGeometry x="62" y="165.5" width="100" height="100" as="geometry">
            <mxPoint x="1210" y="740" as="sourcePoint" />
            <mxPoint x="1210" y="810" as="targetPoint" />
            <Array as="points">
              <mxPoint x="1230" y="770" />
            </Array>
          </mxGeometry>
        </mxCell>
        <mxCell id="48EaxQg9wDrhMcDz6IMn-154" value="" style="edgeStyle=elbowEdgeStyle;elbow=vertical;strokeWidth=4;endArrow=block;endFill=1;fontStyle=1;strokeColor=#23445D;entryX=0;entryY=0.5;entryDx=0;entryDy=0;exitX=0.5;exitY=1;exitDx=0;exitDy=0;" parent="1" source="48EaxQg9wDrhMcDz6IMn-139" target="48EaxQg9wDrhMcDz6IMn-143" edge="1">
          <mxGeometry x="62" y="165.5" width="100" height="100" as="geometry">
            <mxPoint x="1190" y="830" as="sourcePoint" />
            <mxPoint x="1190" y="900" as="targetPoint" />
            <Array as="points">
              <mxPoint x="1230" y="870" />
            </Array>
          </mxGeometry>
        </mxCell>
        <mxCell id="48EaxQg9wDrhMcDz6IMn-155" value="" style="edgeStyle=elbowEdgeStyle;elbow=vertical;strokeWidth=4;endArrow=block;endFill=1;fontStyle=1;strokeColor=#23445D;entryX=0;entryY=0.5;entryDx=0;entryDy=0;exitX=0.5;exitY=1;exitDx=0;exitDy=0;" parent="1" source="7" target="LHZRictP8kXEc40hoXQ5-56" edge="1">
          <mxGeometry x="62" y="165.5" width="100" height="100" as="geometry">
            <mxPoint x="1584.999999999999" y="700" as="sourcePoint" />
            <mxPoint x="1614.999999999999" y="960" as="targetPoint" />
            <Array as="points">
              <mxPoint x="1570" y="830" />
            </Array>
          </mxGeometry>
        </mxCell>
        <mxCell id="48EaxQg9wDrhMcDz6IMn-156" value="" style="edgeStyle=elbowEdgeStyle;elbow=vertical;strokeWidth=4;endArrow=block;endFill=1;fontStyle=1;strokeColor=#23445D;entryX=0;entryY=0.5;entryDx=0;entryDy=0;exitX=0.5;exitY=1;exitDx=0;exitDy=0;" parent="1" source="7" target="LHZRictP8kXEc40hoXQ5-55" edge="1">
          <mxGeometry x="62" y="165.5" width="100" height="100" as="geometry">
            <mxPoint x="1599.999999999999" y="700" as="sourcePoint" />
            <mxPoint x="1540" y="825" as="targetPoint" />
            <Array as="points">
              <mxPoint x="1580" y="660" />
            </Array>
          </mxGeometry>
        </mxCell>
        <mxCell id="48EaxQg9wDrhMcDz6IMn-157" value="" style="edgeStyle=elbowEdgeStyle;elbow=vertical;strokeWidth=4;endArrow=block;endFill=1;fontStyle=1;strokeColor=#23445D;exitX=0.5;exitY=1;exitDx=0;exitDy=0;entryX=0;entryY=0.5;entryDx=0;entryDy=0;" parent="1" source="7" target="LHZRictP8kXEc40hoXQ5-57" edge="1">
          <mxGeometry x="62" y="165.5" width="100" height="100" as="geometry">
            <mxPoint x="1379.999999999999" y="1040" as="sourcePoint" />
            <mxPoint x="1409.999999999999" y="1480" as="targetPoint" />
            <Array as="points">
              <mxPoint x="1570" y="1010" />
              <mxPoint x="1360" y="1480" />
            </Array>
          </mxGeometry>
        </mxCell>
        <mxCell id="48EaxQg9wDrhMcDz6IMn-158" value="" style="edgeStyle=elbowEdgeStyle;elbow=vertical;strokeWidth=4;endArrow=block;endFill=1;fontStyle=1;strokeColor=#23445D;entryX=0;entryY=0.5;entryDx=0;entryDy=0;exitX=0.5;exitY=1;exitDx=0;exitDy=0;" parent="1" source="7" target="LHZRictP8kXEc40hoXQ5-58" edge="1">
          <mxGeometry x="62" y="165.5" width="100" height="100" as="geometry">
            <mxPoint x="1570" y="690" as="sourcePoint" />
            <mxPoint x="1560" y="1360" as="targetPoint" />
            <Array as="points">
              <mxPoint x="1570" y="1200" />
            </Array>
          </mxGeometry>
        </mxCell>
        <mxCell id="48EaxQg9wDrhMcDz6IMn-159" value="" style="edgeStyle=elbowEdgeStyle;elbow=vertical;strokeWidth=4;endArrow=block;endFill=1;fontStyle=1;strokeColor=#23445D;entryX=0;entryY=0.5;entryDx=0;entryDy=0;exitX=0.5;exitY=1;exitDx=0;exitDy=0;" parent="1" source="7" target="LHZRictP8kXEc40hoXQ5-59" edge="1">
          <mxGeometry x="62" y="165.5" width="100" height="100" as="geometry">
            <mxPoint x="1550" y="690" as="sourcePoint" />
            <mxPoint x="1570" y="1565" as="targetPoint" />
            <Array as="points">
              <mxPoint x="1590" y="1400" />
            </Array>
          </mxGeometry>
        </mxCell>
        <mxCell id="48EaxQg9wDrhMcDz6IMn-160" value="" style="edgeStyle=elbowEdgeStyle;elbow=vertical;strokeWidth=4;endArrow=block;endFill=1;fontStyle=1;strokeColor=#23445D;entryX=0;entryY=0.5;entryDx=0;entryDy=0;exitX=0.5;exitY=1;exitDx=0;exitDy=0;" parent="1" source="LHZRictP8kXEc40hoXQ5-58" target="48EaxQg9wDrhMcDz6IMn-135" edge="1">
          <mxGeometry x="62" y="165.5" width="100" height="100" as="geometry">
            <mxPoint x="1710" y="1250" as="sourcePoint" />
            <mxPoint x="1810" y="1340" as="targetPoint" />
            <Array as="points">
              <mxPoint x="1760" y="1330" />
            </Array>
          </mxGeometry>
        </mxCell>
        <mxCell id="48EaxQg9wDrhMcDz6IMn-161" value="" style="edgeStyle=elbowEdgeStyle;elbow=vertical;strokeWidth=4;endArrow=block;endFill=1;fontStyle=1;strokeColor=#23445D;entryX=0;entryY=0.5;entryDx=0;entryDy=0;exitX=0.5;exitY=1;exitDx=0;exitDy=0;" parent="1" source="LHZRictP8kXEc40hoXQ5-58" target="48EaxQg9wDrhMcDz6IMn-134" edge="1">
          <mxGeometry x="62" y="165.5" width="100" height="100" as="geometry">
            <mxPoint x="1420" y="1300" as="sourcePoint" />
            <mxPoint x="1520" y="1390" as="targetPoint" />
            <Array as="points">
              <mxPoint x="1750" y="1280" />
            </Array>
          </mxGeometry>
        </mxCell>
        <mxCell id="48EaxQg9wDrhMcDz6IMn-162" value="" style="edgeStyle=elbowEdgeStyle;elbow=vertical;strokeWidth=4;endArrow=block;endFill=1;fontStyle=1;strokeColor=#23445D;entryX=0;entryY=0.5;entryDx=0;entryDy=0;exitX=0.5;exitY=1;exitDx=0;exitDy=0;" parent="1" source="LHZRictP8kXEc40hoXQ5-57" target="48EaxQg9wDrhMcDz6IMn-133" edge="1">
          <mxGeometry x="62" y="165.5" width="100" height="100" as="geometry">
            <mxPoint x="1680" y="1050" as="sourcePoint" />
            <mxPoint x="1780" y="1140" as="targetPoint" />
            <Array as="points">
              <mxPoint x="1760" y="1130" />
            </Array>
          </mxGeometry>
        </mxCell>
        <mxCell id="48EaxQg9wDrhMcDz6IMn-163" value="" style="edgeStyle=elbowEdgeStyle;elbow=vertical;strokeWidth=4;endArrow=block;endFill=1;fontStyle=1;strokeColor=#23445D;entryX=0;entryY=0.5;entryDx=0;entryDy=0;exitX=0.5;exitY=1;exitDx=0;exitDy=0;" parent="1" source="LHZRictP8kXEc40hoXQ5-57" target="48EaxQg9wDrhMcDz6IMn-132" edge="1">
          <mxGeometry x="62" y="165.5" width="100" height="100" as="geometry">
            <mxPoint x="1430" y="1050" as="sourcePoint" />
            <mxPoint x="1530" y="1140" as="targetPoint" />
            <Array as="points">
              <mxPoint x="1750" y="1080" />
            </Array>
          </mxGeometry>
        </mxCell>
        <mxCell id="48EaxQg9wDrhMcDz6IMn-164" value="" style="edgeStyle=elbowEdgeStyle;elbow=vertical;strokeWidth=4;endArrow=block;endFill=1;fontStyle=1;strokeColor=#23445D;entryX=0;entryY=0.5;entryDx=0;entryDy=0;" parent="1" target="48EaxQg9wDrhMcDz6IMn-105" edge="1">
          <mxGeometry x="62" y="165.5" width="100" height="100" as="geometry">
            <mxPoint x="1740" y="860" as="sourcePoint" />
            <mxPoint x="1824" y="955" as="targetPoint" />
            <Array as="points">
              <mxPoint x="1780" y="950" />
            </Array>
          </mxGeometry>
        </mxCell>
        <mxCell id="48EaxQg9wDrhMcDz6IMn-165" value="" style="edgeStyle=elbowEdgeStyle;elbow=vertical;strokeWidth=4;endArrow=block;endFill=1;fontStyle=1;strokeColor=#23445D;entryX=0;entryY=0.5;entryDx=0;entryDy=0;exitX=0.5;exitY=1;exitDx=0;exitDy=0;" parent="1" source="LHZRictP8kXEc40hoXQ5-56" target="LHZRictP8kXEc40hoXQ5-81" edge="1">
          <mxGeometry x="62" y="165.5" width="100" height="100" as="geometry">
            <mxPoint x="1720" y="865" as="sourcePoint" />
            <mxPoint x="1824" y="905" as="targetPoint" />
            <Array as="points">
              <mxPoint x="1760" y="900" />
            </Array>
          </mxGeometry>
        </mxCell>
        <mxCell id="48EaxQg9wDrhMcDz6IMn-166" value="" style="edgeStyle=elbowEdgeStyle;elbow=vertical;strokeWidth=4;endArrow=block;endFill=1;fontStyle=1;strokeColor=#23445D;entryX=0;entryY=0.5;entryDx=0;entryDy=0;exitX=0.5;exitY=1;exitDx=0;exitDy=0;" parent="1" source="LHZRictP8kXEc40hoXQ5-55" target="48EaxQg9wDrhMcDz6IMn-131" edge="1">
          <mxGeometry x="62" y="165.5" width="100" height="100" as="geometry">
            <mxPoint x="1740" y="700" as="sourcePoint" />
            <mxPoint x="1840" y="790" as="targetPoint" />
            <Array as="points">
              <mxPoint x="1770" y="770" />
            </Array>
          </mxGeometry>
        </mxCell>
        <mxCell id="48EaxQg9wDrhMcDz6IMn-167" value="" style="edgeStyle=elbowEdgeStyle;elbow=vertical;strokeWidth=4;endArrow=block;endFill=1;fontStyle=1;strokeColor=#23445D;entryX=0;entryY=0.5;entryDx=0;entryDy=0;exitX=0.5;exitY=1;exitDx=0;exitDy=0;" parent="1" source="LHZRictP8kXEc40hoXQ5-55" target="48EaxQg9wDrhMcDz6IMn-130" edge="1">
          <mxGeometry x="62" y="165.5" width="100" height="100" as="geometry">
            <mxPoint x="1740" y="700" as="sourcePoint" />
            <mxPoint x="1840" y="740" as="targetPoint" />
            <Array as="points">
              <mxPoint x="1750" y="720" />
            </Array>
          </mxGeometry>
        </mxCell>
      </root>
    </mxGraphModel>
  </diagram>
</mxfile>
